:SAMPLES-PER-SECOND 30
:FULLY-SPECIFIED
:DEGREES
1
root  -126.217 26.5673 2.16663 127.005 87.8908 132.368
RightUpLeg  -63.1594 0.0444792 -14.6113
RightLeg  108.527 8.49534 7.88543
RightFoot  64.7649 -25.9622 31.8628
RightToes  1.16414e-010 -1.59028e-015 9.93923e-017
Spine  47.0787 -0.626988 -0.178729
Spine1  -10.2768 1.049 -11.4134
HEad  -25.0969 -2.86373 3.72915
LeftShoulder1  9.93923e-017 0 1.22299e-017
LeftArm  -2.44513 -46.6556 -68.7738
LeftForeArm  -121.177 -50.7661 165.77
LeftHand  0.287718 4.504 14.298
RightShoulder  1.98785e-016 -4.96962e-017 1.55301e-017
RightArm  -31.9664 35.3475 64.9948
RightForeArm  72.7274 41.1011 -165.978
RightHand  1.21099 7.29787 15.6083
LeftUpLeg  -49.896 3.2814 3.75125
LeftLeg  110.18 -13.6767 -0.271331
LeftFoot  -2.05338 0.282996 -2.77254
LeftToes  -6.63929e-010 -3.62392e-011 -1.02376e-010
2
root  -125.738 27.2897 2.00106 124.041 88.1404 130.689
RightUpLeg  -62.9429 -1.11687 -12.4022
RightLeg  106.402 8.16482 9.97649
RightFoot  57.6024 -23.2162 32.2984
RightToes  1.16414e-010 -1.59028e-015 9.93923e-017
Spine  48.6496 -0.524708 -0.180763
Spine1  -8.943 1.02176 -9.26719
HEad  -24.6386 -2.53582 3.14383
LeftShoulder1  9.93923e-017 0 1.22299e-017
LeftArm  -3.65449 -46.3399 -67.582
LeftForeArm  -121.14 -50.8207 165.721
LeftHand  0.261327 4.43259 14.5755
RightShoulder  1.98785e-016 -4.96962e-017 1.55301e-017
RightArm  -32.2112 35.7915 65.3064
RightForeArm  70.9808 41.1181 -165.841
RightHand  1.78633 8.42986 19.7873
LeftUpLeg  -50.8977 3.66596 2.88489
LeftLeg  107.558 -14.4449 2.16913
LeftFoot  -6.19436 -0.0247449 0.109645
LeftToes  -6.63929e-010 -3.62392e-011 -1.02376e-010
3
root  -125.326 27.9024 1.75527 121.178 89.5445 129.835
RightUpLeg  -62.7719 -3.40649 -7.80342
RightLeg  102.865 7.60226 14.7977
RightFoot  46.5809 -18.9614 32.5539
RightToes  1.16414e-010 -1.59028e-015 9.93923e-017
Spine  51.569 -0.836251 1.21607
Spine1  -7.14834 0.839803 -6.07661
HEad  -24.6424 -1.75952 2.6841
LeftShoulder1  9.93923e-017 0 1.22299e-017
LeftArm  -4.44959 -45.9116 -66.6476
LeftForeArm  -120.616 -51.1371 165.412
LeftHand  0.246912 4.40413 14.8337
RightShoulder  1.98785e-016 -4.96962e-017 1.55301e-017
RightArm  -31.278 36.4432 66.7795
RightForeArm  68.2127 41.4665 -165.29
RightHand  1.88242 6.6162 21.8403
LeftUpLeg  -52.567 4.09977 3.01298
LeftLeg  103.269 -14.4531 3.34833
LeftFoot  -14.3721 -0.0531585 0.329597
LeftToes  -6.63929e-010 -3.62392e-011 -1.02376e-010
4
root  -124.977 27.947 1.51231 -101.85 87.7029 -90.7539
RightUpLeg  -61.876 -5.64342 -2.30054
RightLeg  99.9853 7.64437 18.7438
RightFoot  32.2507 -13.5372 31.5655
RightToes  1.16414e-010 -1.59028e-015 9.93923e-017
Spine  54.5795 -1.7368 4.12093
Spine1  -5.26119 0.40215 -3.03266
HEad  -25.2511 -0.532108 2.51017
LeftShoulder1  9.93923e-017 0 1.22299e-017
LeftArm  -5.12561 -45.7919 -65.5827
LeftForeArm  -120.246 -51.451 165.112
LeftHand  0.221262 4.30508 14.7722
RightShoulder  1.98785e-016 -4.96962e-017 1.55301e-017
RightArm  -29.5969 37.2869 68.6369
RightForeArm  66.3916 41.9617 -164.637
RightHand  1.83211 4.81902 23.136
LeftUpLeg  -53.9566 4.50458 4.55439
LeftLeg  99.7444 -13.6694 1.43523
LeftFoot  -22.0219 -0.115381 -0.737321
LeftToes  -6.63929e-010 -3.62392e-011 -1.02376e-010
5
root  -124.487 27.4982 1.40271 -96.1295 86.4015 -82.4723
RightUpLeg  -59.7867 -7.50954 1.56143
RightLeg  98.544 7.83628 20.7945
RightFoot  12.304 -5.54612 23.564
RightToes  1.16414e-010 -1.59028e-015 9.93923e-017
Spine  57.5525 -2.10833 5.90286
Spine1  -3.88487 0.242346 -0.866275
HEad  -26.4711 -0.269503 2.05135
LeftShoulder1  9.93923e-017 0 1.22299e-017
LeftArm  -5.51206 -46.6162 -65.5128
LeftForeArm  -120.093 -51.5516 165.012
LeftHand  0.144727 4.03304 14.8177
RightShoulder  1.98785e-016 -4.96962e-017 1.55301e-017
RightArm  -28.9982 37.9798 68.745
RightForeArm  65.6568 42.0195 -164.521
RightHand  2.00934 4.82682 24.9079
LeftUpLeg  -54.9753 4.78172 5.24101
LeftLeg  97.2665 -12.9645 -1.74826
LeftFoot  -27.0917 -0.195926 -0.984628
LeftToes  -6.63929e-010 -3.62392e-011 -1.02376e-010
6
root  -123.827 26.4882 1.39662 -104.89 86.7233 -88.5982
RightUpLeg  -57.2896 -8.5267 2.94012
RightLeg  98.0809 8.09757 20.1762
RightFoot  -5.30064 -0.573434 9.26986
RightToes  1.16414e-010 -1.59028e-015 9.93923e-017
Spine  60.4802 -2.00839 5.74282
Spine1  -2.43296 0.0567874 0.245612
HEad  -27.9896 -0.202414 1.44768
LeftShoulder1  9.93923e-017 0 1.22299e-017
LeftArm  -5.61256 -47.5985 -65.6975
LeftForeArm  -120.022 -51.4914 165.06
LeftHand  0.0541582 3.78263 15.4969
RightShoulder  1.98785e-016 -4.96962e-017 1.55301e-017
RightArm  -29.0582 38.5246 68.6286
RightForeArm  65.8058 41.8911 -164.668
RightHand  2.09856 5.16317 25.3764
LeftUpLeg  -55.5184 4.64354 4.65563
LeftLeg  96.144 -12.6398 -4.00802
LeftFoot  -29.6457 -0.205631 -0.811389
LeftToes  -6.63929e-010 -3.62392e-011 -1.02376e-010
7
root  -123.001 24.6971 1.36041 -114.168 87.3068 -95.0593
RightUpLeg  -55.9317 -8.30321 2.81492
RightLeg  100.958 7.3624 18.6588
RightFoot  -15.1002 0.0606836 -1.5154
RightToes  1.16414e-010 -1.59028e-015 9.93923e-017
Spine  62.6561 -2.17994 5.17686
Spine1  -1.0362 -0.131868 -0.0481033
HEad  -28.8944 0.246314 1.10709
LeftShoulder1  9.93923e-017 0 1.22299e-017
LeftArm  -5.24768 -47.624 -66.069
LeftForeArm  -120.313 -51.4863 165.086
LeftHand  0.0233763 3.7752 16.4108
RightShoulder  1.98785e-016 -4.96962e-017 1.55301e-017
RightArm  -28.7617 38.4868 69.5338
RightForeArm  67.2677 42.1006 -164.555
RightHand  1.98149 5.38448 23.9901
LeftUpLeg  -55.6666 4.08648 4.13368
LeftLeg  98.0923 -12.4462 -4.95867
LeftFoot  -31.8558 0.100147 1.01077
LeftToes  -6.63929e-010 -3.62392e-011 -1.02376e-010
8
root  -122.139 22.4192 1.25033 -122.679 87.6218 -101.252
RightUpLeg  -57.1165 -7.27559 2.47161
RightLeg  107.593 5.66734 16.9851
RightFoot  -19.0413 -0.361417 -6.88182
RightToes  1.16414e-010 -1.59028e-015 9.93923e-017
Spine  63.4543 -2.3228 4.95528
Spine1  0.452406 0.152368 -1.05977
HEad  -29.1689 0.619002 0.902413
LeftShoulder1  9.93923e-017 0 1.22299e-017
LeftArm  -4.70155 -47.004 -67.1129
LeftForeArm  -120.978 -51.4707 165.149
LeftHand  0.0758717 3.9768 16.6013
RightShoulder  1.98785e-016 -4.96962e-017 1.55301e-017
RightArm  -28.1135 37.7493 70.7328
RightForeArm  69.4125 42.3365 -164.461
RightHand  1.87717 5.91105 22.4394
LeftUpLeg  -56.7473 3.46618 3.87266
LeftLeg  103.728 -12.0837 -4.98467
LeftFoot  -34.0786 0.76207 4.8199
LeftToes  -6.63929e-010 -3.62392e-011 -1.02376e-010
